<svg version="1.1" id="Layer_1" xmlns="http://www.w3.org/2000/svg" xmlns:xlink="http://www.w3.org/1999/xlink" x="0px" y="0px"
	 width="100%" viewBox="0 0 1024 1024" enable-background="new 0 0 1024 1024" xml:space="preserve">
<path fill="#000000" opacity="1.000000" stroke="none" 
	d="
M396.001831,894.316711 
	C363.057800,895.247192 333.834229,885.269958 307.223816,867.400269 
	C285.068726,852.522583 268.944061,832.609314 257.625366,808.202271 
	C248.122238,787.710266 244.594620,766.633484 244.620728,744.324341 
	C244.798630,592.182556 244.792740,440.040253 244.591171,287.898499 
	C244.564026,267.412415 248.365845,248.137955 256.493042,229.302612 
	C269.020325,200.269699 288.743439,177.558914 315.853363,162.002609 
	C335.798553,150.557556 357.377014,142.831696 380.938599,141.526215 
	C403.760620,140.261719 426.561462,140.963486 449.367371,140.883102 
	C498.858185,140.708649 548.350525,141.002533 597.841919,140.916321 
	C621.368469,140.875351 641.876099,148.217392 660.360657,162.985413 
	C673.055542,173.127777 683.308289,185.551834 695.040466,196.562943 
	C714.196960,214.542068 732.111328,233.815552 751.177246,251.922684 
	C760.337158,260.621979 769.551819,269.298218 778.501160,278.185638 
	C795.399170,294.966797 806.620544,315.134003 810.307983,339.048706 
	C810.995667,343.508514 811.256775,347.959900 811.256470,352.462372 
	C811.246582,501.604706 811.228455,650.747009 811.314636,799.889343 
	C811.325134,818.020569 806.151611,834.489441 797.408569,850.191467 
	C786.936035,868.999695 771.550293,882.092896 751.869812,890.156006 
	C743.842163,893.445007 735.180359,894.347290 726.445923,894.344238 
	C616.464417,894.306091 506.482880,894.317688 396.001831,894.316711 
M360.519348,842.876099 
	C372.198242,847.192688 384.426727,848.527771 396.703491,848.612549 
	C431.864807,848.855469 467.028931,848.695435 502.191925,848.694092 
	C574.851013,848.691162 647.510254,848.773254 720.169006,848.603027 
	C732.419312,848.574341 744.256409,846.050110 752.420166,835.710327 
	C760.534546,825.433228 765.638245,813.718018 765.641602,800.410095 
	C765.678650,653.925659 765.619873,507.441254 765.608032,360.956818 
	C765.607422,353.116394 764.482178,345.424683 763.336548,337.691620 
	C762.643250,333.011749 760.068237,331.581940 756.023193,331.365021 
	C754.194458,331.266968 752.358459,331.284210 750.525757,331.283844 
	C720.362244,331.277893 690.198792,331.264740 660.035278,331.293732 
	C656.688171,331.296967 653.429626,330.819580 650.130127,330.320099 
	C631.835693,327.550507 618.734314,316.910156 609.019592,302.090546 
	C602.548523,292.219086 599.847290,280.671539 599.749817,268.833984 
	C599.542603,243.671631 599.685730,218.506424 599.669617,193.342392 
	C599.665039,186.207367 599.640320,186.198471 592.401245,186.201187 
	C529.241272,186.224884 466.080444,186.437515 402.921844,186.155457 
	C385.862457,186.079269 369.594238,188.729904 353.680634,194.774872 
	C328.922577,204.179520 311.312653,221.375885 299.651520,244.626114 
	C292.714264,258.457733 290.280640,273.623688 290.281525,289.127228 
	C290.289490,429.112366 290.230591,569.097534 290.342224,709.082581 
	C290.356415,726.887268 289.657715,744.691711 291.039215,762.513245 
	C292.625000,782.970886 301.995514,800.058289 315.049011,814.589844 
	C326.962341,827.852234 342.139221,837.627991 360.519348,842.876099 
M693.586365,260.901825 
	C677.789246,245.375381 661.992126,229.848938 645.995300,214.126205 
	C645.770630,214.811203 645.408508,215.401962 645.407410,215.993332 
	C645.378479,233.460205 644.927673,250.943405 645.547424,268.388367 
	C645.960571,280.017792 652.892944,285.667572 664.480591,285.682465 
	C679.786194,285.702148 695.091797,285.716827 710.397217,285.663940 
	C712.611694,285.656311 715.079285,286.250946 717.338562,283.548981 
	C709.919250,275.805359 702.331299,268.279175 693.586365,260.901825 
z"/>
<path fill="#000000" opacity="1.000000" stroke="none" 
	d="
M385.110107,459.219788 
	C391.001923,433.725800 397.886841,408.913086 404.730103,384.088409 
	C405.787476,380.252655 406.466370,376.313446 407.356049,372.430267 
	C408.128357,369.059509 410.015259,367.498016 413.731476,367.620514 
	C421.219696,367.867371 428.724396,367.810913 436.216858,367.640717 
	C439.468872,367.566864 440.953033,368.788727 441.707825,371.958099 
	C448.477875,400.385864 456.977875,428.362762 463.624664,456.835815 
	C467.276550,472.479370 472.556000,487.736176 476.789185,503.252625 
	C481.727570,521.354126 486.280945,539.560303 491.082611,557.699524 
	C495.840820,575.674683 500.358673,593.723633 505.611450,611.554810 
	C510.830414,629.270996 514.795227,647.266785 518.960388,665.227722 
	C519.761841,668.683838 518.464111,670.202209 514.895142,670.175659 
	C504.567444,670.098633 494.238281,670.074890 483.911041,670.173828 
	C480.715210,670.204407 479.537842,668.528320 478.968292,665.751892 
	C474.452515,643.739319 466.533875,622.657532 461.208588,600.867798 
	C460.512878,598.021179 459.001556,597.246765 456.267395,597.257324 
	C435.444550,597.337891 414.621216,597.344971 393.798340,597.276978 
	C390.399200,597.265930 388.596893,598.482666 388.028229,601.975586 
	C384.491241,623.701965 376.098694,644.157532 371.296631,665.554565 
	C370.544434,668.906250 368.741730,670.230957 365.349518,670.193115 
	C355.355621,670.081421 345.359283,670.093933 335.364868,670.176819 
	C331.591003,670.208069 330.237152,668.925110 331.298218,665.022766 
	C338.580780,638.237915 344.881805,611.201904 352.136932,584.402283 
	C358.689331,560.198669 365.237427,535.977173 370.789124,511.500885 
	C373.136566,501.151642 376.634583,491.066925 379.475006,480.824646 
	C381.427307,473.784851 383.147827,466.680756 385.110107,459.219788 
M411.535217,557.750305 
	C422.854248,557.748352 434.173340,557.733276 445.492310,557.753113 
	C448.462708,557.758301 450.582672,557.222046 449.147339,553.453613 
	C444.935242,542.394470 442.786011,530.770447 439.839111,519.362122 
	C436.061676,504.738312 432.127502,490.154480 428.175507,475.576599 
	C427.173920,471.882172 427.225830,467.809174 424.507050,464.003693 
	C420.701691,474.621429 419.244415,485.196045 416.251343,495.356171 
	C410.951569,513.346375 407.335144,531.792603 401.544464,549.648682 
	C399.113617,557.144409 399.541779,557.749268 407.555054,557.750854 
	C408.553802,557.751038 409.552521,557.749756 411.535217,557.750305 
z"/>
<path fill="#000000" opacity="1.000000" stroke="none" 
	d="
M678.251709,646.732666 
	C673.618469,631.731018 670.343323,616.792664 666.765137,601.937195 
	C665.963501,598.608948 664.672974,597.141418 661.125488,597.164978 
	C640.629517,597.301025 620.132141,597.328857 599.635925,597.240601 
	C595.856445,597.224304 593.965454,598.455811 593.057068,602.322571 
	C588.076477,623.523560 581.479675,644.282715 575.617249,665.243774 
	C574.627380,668.783142 573.164001,670.268433 569.517883,670.221191 
	C559.521240,670.091797 549.521118,670.126404 539.523499,670.217285 
	C535.588562,670.253052 534.753540,669.152710 536.025879,665.126099 
	C538.575989,657.055847 540.342896,648.739563 542.478882,640.536743 
	C548.129272,618.837402 552.741577,596.888000 559.126465,575.355530 
	C564.839172,556.090149 569.350647,536.470764 574.523560,517.042603 
	C579.012146,500.184906 583.771912,483.399414 588.249146,466.538818 
	C591.914734,452.734741 595.186890,438.825531 598.911560,425.038055 
	C603.634888,407.553864 607.356689,389.807953 612.789978,372.506073 
	C613.933411,368.864990 615.760010,367.459045 619.571289,367.619812 
	C625.892578,367.886444 632.236511,367.826660 638.564026,367.653259 
	C642.224731,367.552887 644.334595,368.970825 645.877625,372.333466 
	C650.505798,382.419067 652.123169,393.347778 655.046814,403.901093 
	C658.638184,416.864655 661.523743,430.025848 665.209167,442.960663 
	C669.219055,457.034668 672.399475,471.305573 676.072266,485.455933 
	C680.497070,502.503052 685.370911,519.432983 689.920227,536.448486 
	C693.218323,548.784119 696.806580,561.037048 699.658813,573.500732 
	C702.251038,584.828125 705.623962,595.974792 708.525269,607.233887 
	C713.335205,625.900085 718.099792,644.578552 722.759888,663.282654 
	C724.194153,669.039307 723.212219,670.148682 717.342102,670.172363 
	C708.177063,670.209351 699.011414,670.124512 689.846680,670.184448 
	C687.125305,670.202209 684.873047,669.783447 684.012512,666.742615 
	C682.159180,660.193115 680.268066,653.654297 678.251709,646.732666 
M650.491638,540.912231 
	C643.085327,515.819092 637.453613,490.221191 629.611755,465.079285 
	C627.770874,465.964355 627.636047,467.196747 627.435303,468.263519 
	C624.669128,482.965210 620.251465,497.251312 616.656372,511.741608 
	C613.294189,525.292725 608.544922,538.453674 605.769043,552.160156 
	C605.035461,555.782288 605.044250,557.957275 609.630859,557.907471 
	C622.789917,557.764648 635.951599,557.758484 649.111389,557.836426 
	C652.780640,557.858093 654.528381,556.609985 653.563721,552.801758 
	C652.626099,549.099854 651.615173,545.416382 650.491638,540.912231 
z"/>
<path fill="#000000" opacity="1.000000" stroke="none"
	d="
M560.000000,717.694092
	C569.499268,717.694458 578.501221,717.822815 587.496521,717.634644
	C591.299316,717.555176 593.143921,719.001404 593.147949,722.762390
	C593.156067,730.261536 593.056458,737.761963 593.165833,745.259399
	C593.230042,749.661499 590.287292,749.326721 587.389587,749.326050
	C559.391846,749.319763 531.393799,749.242920 503.396454,749.347351
	C469.260345,749.474731 435.121094,750.153259 400.990295,749.834106
	C377.999603,749.619141 355.009033,749.328003 332.017303,749.396118
	C328.217133,749.407410 326.573395,748.279358 326.699890,744.270264
	C326.920441,737.278076 326.968445,730.263977 326.666107,723.277405
	C326.471161,718.773682 328.272552,717.604492 332.518585,717.633484
	C355.348969,717.789490 378.181061,717.705627 401.012543,717.704224
	C453.841705,717.700989 506.670837,717.697510 560.000000,717.694092
z"/>
<path fill="#000000" opacity="1.000000" stroke="none"
	d="
M369.000000,778.899292
	C415.972290,778.890381 462.444580,778.880798 508.916870,778.873596
	C515.094666,778.872620 515.267944,779.043884 515.274597,785.392517
	C515.281738,792.221802 515.086609,799.057251 515.323120,805.878052
	C515.465027,809.971130 514.061157,811.460754 509.882019,811.386353
	C497.892944,811.172913 485.897614,811.308533 473.904755,811.308838
	C427.099213,811.310120 380.293701,811.315308 333.488159,811.310547
	C326.715210,811.309875 326.706604,811.288391 326.694275,804.358582
	C326.683044,798.028992 326.680328,791.699402 326.697510,785.369873
	C326.714935,778.941711 326.791809,778.872070 333.021210,778.874939
	C344.847473,778.880432 356.673737,778.890930 369.000000,778.899292
z"/>
</svg>